<?xml version="1.0" standalone="no"?>
<!DOCTYPE svg PUBLIC "-//W3C//DTD SVG 20010904//EN"
 "http://www.w3.org/TR/2001/REC-SVG-20010904/DTD/svg10.dtd">
<svg version="1.0" xmlns="http://www.w3.org/2000/svg"
 width="200.000000pt" height="200.000000pt" viewBox="0 0 200.000000 200.000000"
 preserveAspectRatio="xMidYMid meet">

<g transform="translate(0.000000,200.000000) scale(0.100000,-0.100000)"
fill="#000000" stroke="none">
<path d="M1000 1936 c0 -18 21 -36 42 -36 15 0 17 4 9 19 -12 22 -51 35 -51
17z"/>
<path d="M875 1920 c10 -11 29 -20 43 -20 l25 0 -26 20 c-14 11 -33 20 -43 20
-16 0 -16 -1 1 -20z"/>
<path d="M945 1920 c10 -11 27 -20 38 -20 19 0 20 1 2 20 -10 11 -27 20 -38
20 -19 0 -20 -1 -2 -20z"/>
<path d="M1066 1925 c7 -17 35 -35 55 -35 7 0 2 11 -11 25 -26 28 -53 34 -44
10z"/>
<path d="M1130 1927 c0 -17 32 -47 49 -47 17 0 -4 37 -29 50 -15 8 -20 8 -20
-3z"/>
<path d="M800 1920 c0 -12 33 -30 54 -30 24 0 19 15 -9 28 -31 15 -45 15 -45
2z"/>
<path d="M1199 1902 c13 -25 40 -46 48 -39 9 10 -26 57 -43 57 -11 0 -12 -4
-5 -18z"/>
<path d="M744 1895 c11 -8 31 -15 45 -15 25 1 25 1 7 15 -11 8 -31 15 -45 15
-25 -1 -25 -1 -7 -15z"/>
<path d="M1260 1903 c0 -6 3 -19 6 -27 8 -20 44 -42 44 -27 0 14 -49 68 -50
54z"/>
<path d="M684 1875 c22 -16 66 -20 66 -6 0 12 -26 21 -58 21 -26 -1 -26 -1 -8
-15z"/>
<path d="M1320 1880 c0 -19 28 -60 41 -60 16 0 10 18 -16 47 -16 19 -24 23
-25 13z"/>
<path d="M610 1861 c0 -11 25 -21 56 -21 30 0 31 16 2 24 -33 8 -58 7 -58 -3z"/>
<path d="M1380 1846 c0 -16 36 -63 43 -56 3 3 -1 20 -8 38 -14 32 -35 44 -35
18z"/>
<path d="M565 1840 c-19 -7 -19 -7 3 -19 23 -12 66 -6 57 9 -8 12 -38 18 -60
10z"/>
<path d="M955 1809 c4 -13 1 -27 -11 -40 -16 -18 -16 -19 8 -19 20 0 28 -7 33
-27 l7 -28 10 28 c7 20 16 27 36 28 l27 0 -22 15 c-18 13 -20 20 -13 40 10 26
2 32 -18 12 -9 -9 -18 -9 -37 0 -24 11 -26 11 -20 -9z"/>
<path d="M1440 1812 c0 -22 26 -59 35 -51 3 4 3 18 0 32 -8 31 -35 45 -35 19z"/>
<path d="M496 1801 c-7 -10 42 -21 61 -14 7 3 13 9 13 14 0 12 -67 12 -74 0z"/>
<path d="M1496 1773 c4 -16 13 -35 20 -43 12 -12 14 -11 14 9 0 27 -17 61 -31
61 -5 0 -7 -12 -3 -27z"/>
<path d="M447 1774 c-12 -12 4 -24 33 -24 16 0 31 4 34 9 10 16 -52 30 -67 15z"/>
<path d="M693 1761 c-8 -13 -19 -18 -33 -14 -22 6 -26 -7 -8 -25 10 -10 10
-17 0 -33 -13 -20 -12 -21 16 -14 22 4 31 2 35 -9 10 -25 25 -19 20 8 -4 18 0
26 16 31 27 8 27 25 1 25 -15 0 -20 7 -20 25 0 30 -11 32 -27 6z"/>
<path d="M1270 1758 c0 -21 -5 -28 -19 -28 -27 0 -35 -17 -11 -23 14 -4 20
-14 20 -33 0 -26 0 -27 20 -9 17 15 24 16 46 6 l27 -12 -17 26 c-17 25 -17 28
1 47 18 21 18 21 -7 15 -19 -5 -29 -1 -42 16 l-18 22 0 -27z"/>
<path d="M1550 1742 c0 -27 10 -52 21 -52 15 0 10 47 -6 60 -12 10 -15 9 -15
-8z"/>
<path d="M395 1730 c-8 -12 17 -23 41 -18 10 1 19 9 22 16 5 15 -54 17 -63 2z"/>
<path d="M1600 1692 c0 -16 7 -35 15 -42 13 -11 15 -8 15 18 0 16 -7 35 -15
42 -13 11 -15 8 -15 -18z"/>
<path d="M347 1693 c-16 -15 -5 -24 25 -21 41 4 50 28 11 28 -17 0 -33 -3 -36
-7z"/>
<path d="M1652 1646 c2 -22 9 -41 16 -44 17 -5 15 40 -3 64 -14 18 -15 17 -13
-20z"/>
<path d="M305 1645 c-19 -14 -18 -15 20 -13 22 2 40 8 40 13 0 17 -39 17 -60
0z"/>
<path d="M870 1635 c-46 -8 -110 -31 -167 -60 -207 -102 -342 -305 -359 -536
-28 -400 328 -738 724 -689 160 20 269 75 387 194 129 130 185 267 185 453 0
188 -54 319 -189 454 -71 71 -101 93 -171 126 -47 23 -107 46 -133 52 -80 19
-196 22 -277 6z m284 -21 c206 -53 383 -222 449 -429 31 -100 31 -280 0 -380
-60 -190 -207 -341 -401 -413 -82 -30 -239 -41 -334 -23 -84 16 -231 89 -296
146 -70 63 -139 161 -172 248 -139 358 61 751 435 852 70 19 243 19 319 -1z"/>
<path d="M958 1583 c6 -2 12 -20 12 -39 0 -19 5 -34 10 -34 6 0 10 15 10 34 0
19 6 37 13 39 6 3 -4 5 -23 5 -19 0 -29 -2 -22 -5z"/>
<path d="M1040 1551 c0 -23 2 -41 4 -41 8 0 12 71 4 76 -4 3 -8 -13 -8 -35z"/>
<path d="M877 1543 c7 -47 5 -45 34 -34 17 7 19 10 7 10 -21 1 -24 17 -5 24 7
3 5 6 -5 6 -10 1 -18 5 -18 10 0 5 8 12 18 14 11 3 7 5 -10 6 -25 1 -26 -1
-21 -36z"/>
<path d="M820 1548 c0 -17 -3 -19 -12 -10 -7 7 -16 12 -21 12 -8 0 34 -58 43
-59 3 -1 5 17 5 39 0 22 -3 40 -7 40 -5 0 -8 -10 -8 -22z"/>
<path d="M1132 1534 l-23 -35 26 7 c19 5 25 2 25 -10 0 -9 5 -16 10 -16 15 0
12 77 -3 83 -7 3 -23 -11 -35 -29z"/>
<path d="M1219 1513 c-7 -16 -15 -31 -17 -35 -2 -4 6 -12 17 -18 50 -26 82 36
35 66 -19 13 -22 12 -35 -13z m44 -7 c6 -16 -11 -36 -30 -36 -16 0 -16 5 -3
31 12 22 26 25 33 5z"/>
<path d="M747 1495 c9 -19 19 -33 21 -30 7 7 -19 65 -29 65 -5 0 -1 -16 8 -35z"/>
<path d="M667 1493 c-12 -12 -7 -30 14 -54 l20 -24 -6 23 c-6 22 8 31 20 12 3
-5 11 -10 17 -10 6 0 4 8 -5 18 -10 10 -17 24 -17 30 0 13 -32 17 -43 5z m33
-11 c0 -13 -12 -22 -22 -16 -10 6 -1 24 13 24 5 0 9 -4 9 -8z"/>
<path d="M883 1466 c-253 -62 -415 -315 -362 -568 54 -259 311 -429 567 -374
252 53 421 292 382 542 -42 277 -318 465 -587 400z m132 -77 c7 -7 1 -8 -17
-4 -21 5 -33 1 -52 -19 -15 -14 -26 -32 -26 -41 0 -9 11 -27 26 -41 18 -19 31
-24 50 -20 32 8 31 -2 -3 -15 -60 -23 -123 41 -101 103 17 49 89 71 123 37z
m72 -46 c4 3 8 -6 8 -19 0 -14 -5 -22 -11 -20 -6 2 -17 -1 -23 -7 -8 -8 -11
-7 -11 6 0 9 -6 17 -12 18 -10 0 -10 2 0 6 6 2 12 12 12 20 0 12 3 13 15 3 8
-6 18 -10 22 -7z m87 -165 c-3 -35 55 -271 68 -279 7 -5 2 -16 -15 -33 -36
-36 -94 -36 -131 1 -18 18 -23 29 -15 34 10 6 68 223 69 257 0 9 -39 12 -160
12 -121 0 -160 -3 -160 -12 0 -31 55 -254 64 -261 19 -13 -41 -57 -79 -57 -38
0 -98 44 -79 57 16 12 74 266 63 279 -19 24 17 29 193 27 l183 -2 -1 -23z
m-174 -199 c0 -118 3 -169 11 -169 8 0 8 -5 -1 -15 -7 -9 -10 -27 -6 -45 6
-31 -4 -39 -21 -17 -15 18 -24 77 -13 77 6 0 10 68 10 176 0 114 3 173 10 169
6 -4 10 -73 10 -176z m-169 -169 c43 -12 104 -51 104 -67 0 -6 11 -21 25 -33
20 -17 15 -16 -25 6 -42 24 -63 29 -145 32 -98 4 -134 16 -86 28 42 10 148 -1
185 -20 18 -10 35 -15 38 -12 12 12 -89 47 -152 53 -36 3 -68 10 -71 14 -7 12
83 11 127 -1z m449 1 c-8 -5 -43 -11 -78 -15 -36 -3 -83 -16 -112 -31 -28 -14
-50 -23 -50 -21 0 8 72 49 109 62 40 15 156 19 131 5z m14 -37 c35 -14 0 -24
-82 -24 -72 0 -96 -5 -141 -25 -30 -14 -51 -28 -48 -31 3 -3 25 5 49 17 52 28
172 32 228 7 33 -14 34 -15 14 -26 -14 -7 -33 -8 -60 -2 -53 13 -137 12 -171
-1 -15 -5 -42 -24 -59 -40 l-30 -29 -20 21 c-46 52 -156 74 -246 49 -27 -8
-44 -8 -59 1 -29 15 -13 24 67 39 78 15 155 1 216 -40 31 -21 46 -26 55 -18 7
6 10 14 8 18 -8 13 60 60 107 75 45 14 145 19 172 9z"/>
<path d="M790 1028 c-13 -57 -25 -109 -28 -115 -3 -10 11 -13 52 -13 31 0 56
2 56 5 0 10 -52 225 -54 225 -2 0 -13 -46 -26 -102z"/>
<path d="M1158 1115 c-9 -16 -50 -206 -45 -211 3 -3 27 -4 54 -2 l49 3 -26
110 c-14 61 -28 106 -32 100z"/>
<path d="M1308 1458 c-33 -23 -36 -38 -8 -31 10 3 18 10 17 15 -1 6 4 13 11
15 11 4 12 1 2 -16 -6 -12 -10 -30 -8 -39 3 -11 9 -3 17 21 16 48 4 62 -31 35z"/>
<path d="M628 1421 c21 -38 9 -51 -21 -23 -32 30 -46 28 -17 -3 27 -29 42 -31
60 -10 10 12 9 20 -4 40 -23 35 -39 31 -18 -4z"/>
<path d="M1372 1397 c-20 -21 -21 -25 -6 -43 15 -18 15 -18 10 0 -4 12 1 28
15 43 13 12 18 23 12 23 -5 0 -19 -10 -31 -23z"/>
<path d="M543 1358 c1 -17 -3 -22 -15 -20 -10 2 -18 -1 -18 -5 1 -13 51 -46
58 -38 3 3 0 10 -7 14 -21 13 -3 33 22 25 20 -6 20 -5 8 10 -8 9 -23 21 -33
27 -15 8 -17 6 -15 -13z"/>
<path d="M1427 1347 c-20 -15 -26 -27 -22 -40 10 -25 24 -21 18 6 -5 18 -3 20
8 10 18 -17 34 -17 20 0 -15 19 -1 30 17 14 13 -10 14 -9 3 11 -6 12 -13 22
-14 22 -1 0 -15 -10 -30 -23z"/>
<path d="M1494 1291 c4 -5 -6 -19 -21 -31 -20 -15 -22 -19 -8 -14 11 4 30 7
42 7 19 -1 20 2 11 23 -6 13 -15 24 -20 24 -5 0 -7 -4 -4 -9z"/>
<path d="M470 1281 c0 -5 7 -14 15 -21 11 -9 15 -9 15 -1 0 9 5 9 20 1 11 -6
20 -7 20 -2 0 9 -43 32 -60 32 -6 0 -10 -4 -10 -9z"/>
<path d="M478 1243 c-36 -6 -35 -19 2 -38 40 -21 50 -18 20 5 l-25 21 29 -7
c21 -5 27 -3 24 6 -5 16 -14 18 -50 13z"/>
<path d="M430 1170 c0 -5 9 -10 19 -10 22 0 35 -15 26 -30 -3 -6 -15 -6 -30 0
-13 5 -27 5 -30 1 -5 -9 27 -21 56 -21 28 0 33 33 9 52 -24 20 -50 24 -50 8z"/>
<path d="M1525 1173 c-30 -7 -38 -19 -30 -42 7 -22 35 -30 35 -10 0 6 7 9 15
6 8 -4 17 -2 20 4 7 11 -3 50 -13 48 -4 -1 -16 -3 -27 -6z m25 -23 c0 -5 -2
-10 -4 -10 -3 0 -8 5 -11 10 -3 6 -1 10 4 10 6 0 11 -4 11 -10z m-30 -10 c0
-5 -4 -10 -10 -10 -5 0 -10 5 -10 10 0 6 5 10 10 10 6 0 10 -4 10 -10z"/>
<path d="M400 1066 c0 -18 27 -46 44 -46 19 0 36 22 35 45 0 19 -1 19 -9 -2
-15 -37 -57 -29 -51 10 0 4 -3 7 -9 7 -5 0 -10 -6 -10 -14z"/>
<path d="M1515 1066 c17 -13 18 -17 5 -25 -27 -18 -2 -23 30 -6 40 21 34 39
-16 43 -37 3 -38 2 -19 -12z m40 -6 c3 -5 1 -10 -4 -10 -6 0 -11 5 -11 10 0 6
2 10 4 10 3 0 8 -4 11 -10z"/>
<path d="M1523 983 c21 -6 22 -12 2 -27 -13 -9 -8 -11 25 -11 33 0 38 2 25 11
-20 15 -19 21 3 27 9 3 -3 5 -28 5 -25 0 -37 -2 -27 -5z"/>
<path d="M468 940 c-7 -24 -8 -24 -22 -5 -15 20 -15 20 -16 0 l-1 -20 -15 20
c-15 20 -15 19 -12 -5 3 -22 7 -25 38 -22 43 5 42 5 38 34 l-3 23 -7 -25z"/>
<path d="M1511 894 c11 -14 10 -18 -6 -30 -17 -13 -15 -14 23 -14 50 0 55 18
13 43 -36 21 -47 22 -30 1z m39 -24 c0 -5 -4 -10 -10 -10 -5 0 -10 5 -10 10 0
6 5 10 10 10 6 0 10 -4 10 -10z"/>
<path d="M414 862 c4 -7 14 -12 23 -12 13 0 13 -3 3 -15 -20 -25 -8 -24 29 2
l34 23 -31 0 c-17 0 -38 3 -48 7 -12 4 -15 3 -10 -5z"/>
<path d="M1493 807 c24 -20 21 -27 -8 -27 -14 0 -25 -4 -25 -9 0 -12 59 -35
67 -27 4 4 -4 10 -17 14 -25 6 -25 6 4 12 34 6 45 25 19 33 -10 2 -27 8 -38
12 -19 6 -19 6 -2 -8z"/>
<path d="M473 788 c-13 -6 -23 -15 -23 -19 0 -9 47 8 65 23 13 12 -16 9 -42
-4z"/>
<path d="M512 739 c-8 -12 -19 -18 -28 -15 -8 3 -14 1 -14 -4 0 -6 10 -10 23
-10 17 0 19 -2 7 -10 -29 -18 -1 -21 29 -2 31 18 33 36 4 25 -13 -5 -13 -3 -4
15 15 28 0 29 -17 1z"/>
<path d="M1429 719 c-6 -12 -8 -23 -5 -26 3 -3 8 2 12 11 6 15 8 15 31 1 13
-9 29 -15 35 -13 6 2 -5 14 -25 26 l-37 21 -11 -20z"/>
<path d="M546 665 c-25 -20 -28 -26 -17 -39 18 -21 34 -20 54 2 21 23 22 33 1
25 -13 -5 -15 -2 -9 15 8 27 7 27 -29 -3z m14 -24 c0 -6 -4 -13 -10 -16 -5 -3
-10 1 -10 9 0 9 5 16 10 16 6 0 10 -4 10 -9z"/>
<path d="M1400 672 c0 -9 25 -33 48 -46 25 -14 11 11 -18 32 -16 13 -30 19
-30 14z"/>
<path d="M1340 616 c-10 -13 -10 -19 0 -31 7 -8 17 -12 22 -9 6 4 5 10 -3 15
-11 6 -11 11 -1 21 10 10 16 9 29 -5 13 -13 15 -19 5 -29 -14 -14 -16 -32 -2
-23 6 3 10 1 10 -5 0 -6 5 -8 11 -4 6 3 7 9 3 13 -5 3 -9 20 -9 36 0 25 -4 31
-26 33 -14 2 -31 -4 -39 -12z"/>
<path d="M600 595 c-13 -14 -21 -27 -18 -30 2 -3 13 4 23 15 18 20 45 27 45
13 0 -5 -7 -17 -15 -27 -22 -30 -17 -45 5 -17 24 28 26 57 4 65 -21 8 -17 9
-44 -19z"/>
<path d="M1290 577 c0 -11 48 -66 53 -61 7 7 -33 64 -45 64 -4 0 -8 -1 -8 -3z"/>
<path d="M696 535 c-9 -14 -21 -23 -26 -20 -6 4 -10 2 -10 -4 0 -6 9 -15 19
-21 26 -13 38 -13 24 1 -9 9 -8 18 4 36 9 13 13 26 11 29 -3 2 -13 -7 -22 -21z"/>
<path d="M587 539 c7 -7 15 -10 18 -7 3 3 -2 9 -12 12 -14 6 -15 5 -6 -5z"/>
<path d="M983 453 c-18 -6 -16 -30 2 -37 9 -3 18 1 22 10 7 18 -7 33 -24 27z"/>
<path d="M1692 1593 c3 -42 28 -59 28 -20 0 32 -9 57 -22 57 -5 0 -8 -17 -6
-37z"/>
<path d="M423 1590 c-8 -21 -18 -30 -35 -30 -23 -1 -23 -1 3 -15 21 -12 25
-20 21 -42 -5 -28 -5 -28 17 -9 17 16 25 17 46 8 23 -11 24 -10 13 13 -9 21
-8 29 8 46 19 22 19 22 -9 17 -22 -4 -30 0 -40 18 l-13 24 -11 -30z"/>
<path d="M1542 1597 c-10 -24 -16 -27 -39 -21 -28 7 -28 7 -10 -14 15 -16 16
-25 8 -41 -16 -29 -14 -32 14 -19 21 9 28 8 46 -8 22 -19 22 -19 14 5 -6 19
-2 28 15 41 l23 17 -26 7 c-18 4 -27 14 -29 34 l-4 27 -12 -28z"/>
<path d="M259 1594 c-11 -14 -9 -15 21 -12 18 2 35 9 38 16 6 18 -43 15 -59
-4z"/>
<path d="M1735 1568 c-9 -22 -2 -63 10 -63 14 0 18 41 6 62 -9 17 -10 17 -16
1z"/>
<path d="M224 1546 c-10 -8 -16 -17 -13 -20 8 -9 62 9 67 22 5 17 -30 15 -54
-2z"/>
<path d="M1768 1497 c-5 -26 0 -47 12 -47 11 0 20 39 13 56 -8 21 -20 17 -25
-9z"/>
<path d="M189 1490 l-24 -19 26 -1 c14 0 34 9 44 20 18 19 17 20 -2 20 -12 0
-31 -9 -44 -20z"/>
<path d="M1806 1455 c-9 -24 -7 -65 3 -65 13 0 23 49 13 66 -8 15 -10 14 -16
-1z"/>
<path d="M178 1448 c-28 -10 -46 -38 -24 -38 16 0 63 36 56 43 -3 2 -17 0 -32
-5z"/>
<path d="M1831 1387 c-7 -18 -8 -35 -2 -45 8 -15 11 -13 20 11 7 18 8 35 2 45
-8 15 -11 13 -20 -11z"/>
<path d="M143 1388 c-25 -12 -39 -38 -20 -38 17 0 57 29 57 41 0 11 -9 11 -37
-3z"/>
<path d="M1728 1343 c-14 -13 -22 -14 -42 -5 -24 11 -25 10 -14 -13 9 -21 8
-27 -13 -45 l-24 -21 27 5 c22 5 30 1 41 -20 l14 -27 7 27 c5 20 13 26 34 26
l27 1 -23 19 c-17 14 -21 25 -16 44 7 30 4 32 -18 9z"/>
<path d="M240 1326 c0 -13 -10 -30 -22 -39 -23 -16 -23 -16 10 -16 25 -1 32
-5 32 -21 0 -26 17 -26 25 1 5 16 12 19 31 15 27 -7 33 8 8 18 -12 5 -15 14
-10 36 5 28 4 29 -14 18 -16 -10 -24 -10 -40 0 -18 11 -20 10 -20 -12z"/>
<path d="M1862 1332 c-7 -13 -12 -33 -10 -45 l3 -22 13 23 c7 13 12 33 10 45
l-3 22 -13 -23z"/>
<path d="M109 1319 c-11 -11 -18 -23 -16 -26 10 -9 47 8 57 28 15 27 -13 26
-41 -2z"/>
<path d="M1882 1272 c-7 -13 -12 -33 -10 -45 l3 -22 13 23 c7 13 12 33 10 45
l-3 22 -13 -23z"/>
<path d="M89 1259 c-11 -11 -18 -23 -16 -26 10 -9 47 8 57 28 15 27 -13 26
-41 -2z"/>
<path d="M80 1202 c-13 -10 -21 -24 -19 -31 3 -9 12 -6 32 9 27 21 35 40 18
40 -5 0 -19 -8 -31 -18z"/>
<path d="M1890 1201 c-11 -22 -13 -51 -4 -51 12 0 33 34 34 53 0 23 -17 22
-30 -2z"/>
<path d="M71 1141 c-12 -12 -21 -28 -21 -36 0 -13 3 -13 20 -3 20 13 36 45 27
55 -3 2 -15 -5 -26 -16z"/>
<path d="M1906 1138 c-10 -15 -16 -35 -14 -45 3 -15 6 -14 22 9 10 15 16 35
14 45 -3 15 -6 14 -22 -9z"/>
<path d="M68 1082 c-19 -21 -30 -52 -19 -52 8 0 33 26 45 47 11 19 -10 24 -26
5z"/>
<path d="M1913 1078 c-16 -21 -23 -47 -13 -53 10 -6 40 33 40 52 0 17 -15 17
-27 1z"/>
<path d="M221 1046 c-9 -11 -24 -16 -38 -13 -27 5 -27 4 -11 -23 10 -15 10
-22 0 -32 -19 -19 -14 -26 13 -20 18 3 30 -1 40 -14 14 -18 14 -18 15 8 0 20
7 29 28 36 l27 10 -27 7 c-19 5 -28 14 -30 33 -3 24 -4 24 -17 8z"/>
<path d="M1750 1042 c0 -14 -9 -27 -26 -34 l-25 -12 25 -13 c16 -8 26 -22 26
-36 l0 -21 15 21 c13 19 20 21 42 12 25 -9 25 -9 10 14 -14 22 -14 27 -1 46
15 21 15 22 -12 15 -20 -5 -30 -2 -41 11 -12 18 -13 18 -13 -3z"/>
<path d="M54 1005 c-9 -14 -14 -28 -10 -32 8 -9 46 27 46 44 0 21 -18 15 -36
-12z"/>
<path d="M1919 1014 c-20 -23 -31 -54 -20 -54 15 0 43 39 39 55 -3 16 -4 16
-19 -1z"/>
<path d="M68 953 c-10 -11 -18 -28 -18 -39 0 -17 1 -17 21 3 12 11 19 28 17
38 -3 16 -4 16 -20 -2z"/>
<path d="M1912 942 c-12 -12 -22 -30 -22 -39 0 -14 5 -13 26 9 15 14 24 32 22
39 -3 9 -11 6 -26 -9z"/>
<path d="M71 887 c-7 -14 -11 -33 -9 -43 3 -15 7 -13 22 15 11 20 14 37 9 42
-6 6 -15 0 -22 -14z"/>
<path d="M1906 877 c-27 -27 -35 -52 -14 -45 17 6 53 56 45 64 -3 3 -17 -5
-31 -19z"/>
<path d="M82 828 c-7 -7 -12 -23 -12 -37 l1 -26 19 24 c31 36 23 70 -8 39z"/>
<path d="M1892 814 c-21 -15 -31 -44 -14 -44 10 0 52 43 52 53 0 11 -14 8 -38
-9z"/>
<path d="M92 755 c-6 -14 -9 -32 -5 -41 5 -14 8 -13 19 7 15 27 18 59 6 59 -5
0 -14 -11 -20 -25z"/>
<path d="M1703 748 c-9 -21 -17 -25 -40 -21 l-28 5 25 -20 c22 -18 23 -23 12
-48 -13 -27 -13 -27 10 -12 21 14 26 14 47 0 23 -16 23 -16 16 7 -6 19 -2 28
16 42 l24 19 -26 0 c-18 0 -28 7 -35 27 l-9 27 -12 -26z"/>
<path d="M1873 746 c-15 -13 -25 -28 -21 -32 10 -10 58 24 58 41 0 20 -4 19
-37 -9z"/>
<path d="M260 740 c0 -16 -7 -20 -32 -20 l-33 -1 27 -16 c21 -14 26 -22 21
-41 -5 -22 -4 -23 16 -10 17 11 25 11 42 0 20 -13 21 -12 15 13 -5 19 -2 33
10 46 16 18 16 19 -10 19 -15 0 -29 7 -32 15 -9 22 -24 18 -24 -5z"/>
<path d="M113 698 c-6 -13 -7 -32 -3 -43 7 -19 7 -19 18 2 14 25 16 63 4 63
-5 0 -13 -10 -19 -22z"/>
<path d="M1849 681 c-13 -11 -21 -23 -17 -26 9 -9 58 21 58 35 0 15 -15 12
-41 -9z"/>
<path d="M135 630 c-8 -35 3 -60 16 -39 12 19 11 69 0 69 -5 0 -12 -13 -16
-30z"/>
<path d="M1834 630 c-12 -4 -24 -16 -28 -25 -5 -13 -2 -15 17 -9 27 8 47 23
47 35 0 11 -8 11 -36 -1z"/>
<path d="M164 576 c-3 -14 -3 -34 1 -43 6 -15 10 -12 18 15 7 23 7 36 -1 44
-8 8 -13 4 -18 -16z"/>
<path d="M1789 560 l-24 -19 26 -1 c24 0 49 16 49 32 0 15 -27 8 -51 -12z"/>
<path d="M195 520 c-7 -32 1 -54 16 -45 12 8 12 62 0 69 -5 4 -12 -7 -16 -24z"/>
<path d="M1754 506 c-10 -8 -16 -17 -12 -21 9 -10 61 9 66 23 5 17 -30 15 -54
-2z"/>
<path d="M412 487 c4 -22 0 -30 -21 -42 l-26 -14 28 -1 c23 0 29 -5 34 -31 l6
-32 14 28 c12 22 19 26 41 20 26 -6 26 -6 8 14 -16 18 -17 25 -8 46 13 28 10
30 -18 13 -16 -10 -23 -9 -41 7 l-22 20 5 -28z"/>
<path d="M1558 493 c-14 -13 -22 -14 -42 -5 -24 11 -25 10 -14 -13 9 -21 8
-29 -8 -46 -18 -20 -18 -20 9 -14 22 6 28 3 39 -21 l13 -28 5 29 c4 23 12 31
35 35 l29 5 -28 13 c-23 10 -27 17 -22 37 8 30 6 30 -16 8z"/>
<path d="M230 456 c0 -19 4 -37 9 -40 11 -7 23 37 15 58 -11 28 -24 17 -24
-18z"/>
<path d="M1734 460 c-33 -13 -39 -30 -11 -30 13 0 32 9 42 20 20 22 8 26 -31
10z"/>
<path d="M270 413 c0 -42 16 -61 24 -30 7 28 -1 57 -15 57 -5 0 -9 -12 -9 -27z"/>
<path d="M1703 412 c-12 -2 -27 -10 -33 -18 -10 -11 -8 -14 12 -14 26 0 67 24
52 31 -5 3 -19 3 -31 1z"/>
<path d="M312 359 c2 -18 9 -34 16 -37 10 -3 13 5 10 29 -2 18 -9 34 -16 37
-10 3 -13 -5 -10 -29z"/>
<path d="M1634 355 c-18 -14 -17 -15 15 -13 19 2 36 9 39 16 5 17 -30 15 -54
-3z"/>
<path d="M360 328 c0 -32 9 -58 21 -58 14 0 10 44 -6 66 -14 18 -14 18 -15 -8z"/>
<path d="M706 328 c-13 -19 -19 -20 -41 -10 -27 12 -33 4 -13 -16 10 -10 10
-17 0 -32 -17 -28 -15 -33 9 -27 15 4 28 -1 40 -16 l18 -22 1 26 c0 21 6 29
28 34 l27 7 -29 10 c-24 9 -27 14 -22 39 7 35 2 36 -18 7z"/>
<path d="M1260 323 c0 -21 -7 -33 -22 -40 -23 -11 -23 -11 5 -18 21 -6 27 -13
27 -34 l0 -26 18 22 c13 17 23 21 41 16 24 -6 24 -6 8 17 -14 21 -14 25 0 47
l16 24 -28 -13 c-25 -11 -29 -10 -46 11 l-19 23 0 -29z"/>
<path d="M1583 313 c-22 -8 -14 -23 11 -23 31 0 56 10 56 21 0 9 -46 11 -67 2z"/>
<path d="M400 304 c0 -20 22 -74 31 -74 16 0 10 37 -11 61 -10 13 -19 19 -20
13z"/>
<path d="M982 266 c-7 -17 -20 -26 -34 -26 -22 -1 -22 -1 -4 -15 14 -10 17
-21 12 -41 -7 -27 -7 -27 18 -11 21 14 26 14 36 2 19 -23 30 -18 20 10 -8 20
-5 27 13 40 l21 15 -26 0 c-20 0 -29 7 -35 26 l-9 26 -12 -26z"/>
<path d="M1533 274 c-27 -12 -11 -25 25 -22 20 2 36 8 35 13 -3 11 -41 17 -60
9z"/>
<path d="M456 243 c4 -16 13 -35 20 -43 12 -12 14 -11 14 12 0 23 -22 58 -36
58 -2 0 -1 -12 2 -27z"/>
<path d="M1475 231 c-7 -13 30 -24 55 -16 28 9 15 25 -20 25 -16 0 -31 -4 -35
-9z"/>
<path d="M510 217 c0 -23 18 -57 30 -57 16 0 11 26 -10 51 -17 21 -19 22 -20
6z"/>
<path d="M1422 201 c-11 -7 -10 -10 3 -15 24 -9 65 -7 65 3 0 5 -10 11 -22 15
-29 7 -30 7 -46 -3z"/>
<path d="M565 179 c8 -28 32 -55 41 -47 8 9 -18 61 -35 66 -10 3 -11 -2 -6
-19z"/>
<path d="M1367 174 c-12 -12 4 -24 34 -24 31 0 39 14 13 24 -20 8 -39 8 -47 0z"/>
<path d="M620 159 c0 -20 21 -49 35 -49 19 0 19 10 -1 38 -16 23 -34 29 -34
11z"/>
<path d="M680 135 c0 -17 39 -60 47 -52 9 10 -8 47 -28 57 -15 8 -19 7 -19 -5z"/>
<path d="M1300 141 c0 -13 56 -24 72 -15 8 5 6 10 -8 15 -27 11 -64 11 -64 0z"/>
<path d="M740 121 c0 -17 36 -54 49 -50 9 3 6 12 -9 32 -21 27 -40 35 -40 18z"/>
<path d="M1240 121 c0 -12 26 -21 58 -21 26 1 26 1 8 15 -22 16 -66 20 -66 6z"/>
<path d="M1187 113 c-12 -11 14 -33 39 -33 31 0 31 14 -1 28 -30 14 -30 14
-38 5z"/>
<path d="M800 102 c0 -14 38 -44 50 -40 14 4 -17 48 -36 48 -8 0 -14 -4 -14
-8z"/>
<path d="M866 85 c7 -17 35 -35 55 -35 7 0 2 11 -11 25 -26 28 -53 34 -44 10z"/>
<path d="M926 93 c-10 -10 25 -43 47 -43 16 0 17 2 7 16 -18 20 -46 35 -54 27z"/>
<path d="M1052 89 c6 -17 56 -44 65 -35 10 9 -33 46 -54 46 -8 0 -13 -5 -11
-11z"/>
<path d="M1110 95 c0 -2 14 -12 30 -20 36 -18 61 -10 33 11 -17 13 -63 20 -63
9z"/>
<path d="M1005 70 c10 -11 27 -20 38 -20 19 0 20 1 2 20 -10 11 -27 20 -38 20
-19 0 -20 -1 -2 -20z"/>
</g>
</svg>
