<?xml version="1.0" standalone="no"?>
<!DOCTYPE svg PUBLIC "-//W3C//DTD SVG 20010904//EN"
 "http://www.w3.org/TR/2001/REC-SVG-20010904/DTD/svg10.dtd">
<svg version="1.0" xmlns="http://www.w3.org/2000/svg"
 width="1080.000000pt" height="1074.000000pt" viewBox="0 0 1080.000000 1074.000000"
 preserveAspectRatio="xMidYMid meet">

<g transform="translate(0.000000,1074.000000) scale(0.100000,-0.100000)"
fill="#000000" stroke="none">
<path d="M5030 10729 c-1145 -76 -2216 -508 -3120 -1258 -152 -126 -530 -504
-660 -661 -573 -690 -957 -1480 -1139 -2345 -116 -549 -141 -1167 -71 -1735
129 -1039 542 -1983 1230 -2810 136 -164 491 -518 655 -654 679 -563 1435
-942 2255 -1131 447 -103 830 -141 1320 -132 397 8 723 46 1085 128 1334 302
2518 1111 3284 2244 191 282 321 514 451 799 524 1155 621 2453 274 3671 -213
745 -581 1421 -1108 2035 -49 58 -167 182 -261 275 -937 937 -2169 1490 -3510
1575 -183 11 -502 11 -685 -1z m252 -226 c11 -10 18 -30 18 -54 0 -48 -36 -81
-78 -70 -24 6 -27 13 -30 53 -3 40 1 49 24 67 32 25 42 26 66 4z m-278 -32
c11 -12 16 -31 14 -52 -4 -44 -45 -57 -83 -27 -31 24 -32 45 -3 75 26 28 49
29 72 4z m566 -186 c-7 -8 -24 -21 -39 -28 -22 -10 -26 -19 -29 -65 -2 -29 4
-103 12 -164 28 -201 17 -430 -25 -528 -29 -67 -132 -162 -205 -190 -101 -37
-338 -21 -421 30 -45 27 -100 144 -113 240 -34 266 -40 325 -40 408 0 94 -22
200 -44 214 -6 4 -30 8 -53 8 -32 0 -43 4 -43 15 0 12 17 15 95 15 51 0 120 7
152 15 31 8 79 15 105 15 36 0 48 -4 48 -15 0 -9 -9 -15 -24 -15 -58 0 -56 12
-56 -292 0 -371 18 -455 116 -534 86 -69 147 -80 242 -44 105 40 132 75 153
194 23 132 -7 640 -40 680 -9 11 -29 16 -62 16 -26 0 -50 4 -54 9 -13 22 38
30 184 31 136 0 152 -2 141 -15z m471 -15 c10 -6 19 -15 19 -20 0 -16 303
-513 335 -549 43 -49 116 -154 156 -225 18 -33 34 -55 36 -50 8 26 116 565
120 602 6 54 -8 72 -58 72 -28 0 -39 4 -39 15 0 18 39 20 90 5 19 -6 67 -15
107 -20 122 -16 195 -60 100 -60 -45 0 -62 -12 -85 -55 -6 -12 -47 -194 -92
-405 -78 -368 -103 -459 -125 -460 -14 0 -160 212 -237 343 -90 155 -321 501
-333 499 -5 -1 -29 -120 -52 -264 -23 -145 -46 -281 -51 -303 -12 -59 -6 -69
48 -90 50 -19 67 -45 30 -45 -10 0 -43 9 -71 20 -29 12 -83 28 -122 36 -85 17
-117 33 -70 34 22 0 36 6 43 20 6 11 56 214 110 452 55 238 102 439 105 446 5
15 11 15 36 2z m1538 -216 c30 -38 28 -87 -5 -113 -83 -65 -167 31 -95 108 36
39 72 41 100 5z m-181 -191 c31 -10 84 -33 117 -51 33 -19 71 -38 84 -43 20
-8 22 -12 11 -22 -10 -9 -13 -9 -17 1 -3 6 -21 12 -43 12 -33 0 -41 -5 -64
-40 -14 -22 -44 -84 -65 -137 -83 -207 -153 -360 -211 -459 -75 -130 -79 -162
-20 -199 22 -14 44 -25 49 -25 5 0 12 -7 15 -16 10 -27 -48 -12 -149 39 -206
104 -245 126 -233 133 6 4 14 2 16 -4 6 -19 87 -15 104 6 8 9 32 58 53 107 21
50 77 169 126 267 48 97 106 220 129 274 36 87 39 101 29 131 -6 18 -14 33
-17 33 -4 1 -18 10 -31 21 -20 16 -22 22 -11 29 9 6 23 1 42 -15 16 -13 54
-32 86 -42z m-3805 -121 c76 -75 213 -217 304 -314 91 -97 183 -189 204 -203
46 -30 94 -42 103 -26 10 16 99 15 94 -1 -3 -7 -15 -14 -29 -16 -13 -2 -79
-30 -145 -63 -142 -69 -194 -78 -147 -27 16 18 13 23 -85 121 l-101 101 -38
-11 c-21 -6 -87 -32 -148 -59 -60 -27 -111 -49 -112 -49 -1 -1 2 -30 8 -66 6
-35 14 -100 17 -144 7 -77 8 -80 33 -83 14 -2 31 4 39 12 15 19 40 21 40 3 0
-13 -4 -15 -155 -76 -55 -23 -112 -50 -127 -61 -14 -11 -28 -15 -30 -10 -2 5
-50 -27 -108 -71 l-105 -80 -75 4 c-41 3 -100 14 -130 25 -30 11 -85 25 -122
31 -36 6 -85 18 -108 26 -41 14 -42 14 -100 -23 -58 -35 -77 -62 -45 -62 8 0
26 -19 41 -41 14 -23 43 -60 63 -83 21 -22 50 -58 65 -78 16 -21 36 -38 45
-38 24 0 90 25 103 38 16 16 28 15 28 -1 0 -7 -39 -42 -87 -79 -49 -37 -110
-90 -138 -117 -27 -28 -57 -51 -67 -51 -24 0 -23 15 3 41 39 39 21 82 -75 182
-115 119 -220 244 -296 352 -85 121 -137 175 -171 175 -27 0 -84 -25 -94 -41
-8 -12 -25 -12 -25 1 0 6 10 14 23 19 12 5 40 28 62 51 22 23 56 50 75 60 19
10 64 48 100 85 183 187 392 199 477 28 26 -53 28 -67 28 -170 l0 -112 75 -20
c161 -44 235 -55 363 -55 80 -1 130 3 135 10 4 6 27 18 52 28 59 23 78 42 86
83 7 35 -11 729 -22 889 -5 68 -3 84 12 98 31 31 64 10 207 -132z m4337 -147
c7 -8 33 -24 57 -35 25 -11 61 -33 79 -50 19 -16 39 -30 44 -30 6 0 10 -7 10
-15 0 -8 -6 -15 -14 -15 -7 0 -19 7 -26 15 -7 8 -25 15 -41 15 -25 0 -29 -5
-43 -52 -15 -52 -146 -636 -146 -650 0 -7 251 160 445 297 55 38 113 76 128
84 33 18 33 51 0 66 -13 5 -23 15 -23 22 0 22 31 15 64 -14 18 -16 68 -53 112
-83 53 -37 73 -55 62 -58 -10 -2 -30 3 -45 10 -24 12 -33 10 -94 -22 -86 -45
-271 -158 -329 -202 -25 -19 -85 -56 -135 -82 -49 -27 -128 -74 -174 -105
-110 -74 -142 -91 -185 -98 -36 -6 -36 -6 -36 32 0 21 48 242 106 492 117 502
115 481 52 544 -51 51 -20 50 51 -1 38 -27 74 -56 81 -65z m960 -742 c58 -60
146 -154 195 -210 50 -58 97 -103 107 -103 11 0 18 -8 18 -20 0 -11 -5 -20
-12 -20 -6 0 -27 -12 -47 -27 -69 -53 -100 -72 -106 -63 -3 5 6 21 20 36 45
48 34 77 -68 181 l-70 72 -120 -107 c-65 -58 -122 -113 -125 -121 -3 -8 27
-45 80 -97 63 -63 92 -84 112 -84 33 0 36 -32 4 -47 -13 -6 -46 -31 -74 -57
-46 -41 -74 -56 -74 -41 0 3 11 24 25 46 34 53 28 67 -58 156 l-70 73 -141
-137 c-78 -76 -142 -143 -144 -150 -5 -18 172 -193 195 -193 10 0 32 9 48 20
38 25 65 26 65 2 0 -21 -35 -49 -108 -86 l-53 -27 -82 83 c-153 155 -263 273
-270 292 -4 10 -16 20 -27 23 -15 4 -20 14 -20 36 l0 31 28 -27 c16 -15 39
-27 54 -27 39 0 227 162 451 387 206 208 210 216 161 280 -16 21 -20 33 -12
33 8 0 61 -48 118 -107z m-3055 -7 c441 -63 787 -170 1164 -361 559 -283 1040
-724 1381 -1265 90 -143 243 -455 303 -616 90 -242 153 -497 194 -785 22 -157
25 -690 5 -839 -24 -174 -52 -324 -89 -465 -220 -860 -766 -1605 -1530 -2088
-139 -87 -474 -253 -628 -310 -770 -285 -1611 -299 -2376 -38 -1330 454 -2263
1637 -2380 3019 -16 197 -6 574 20 752 95 645 336 1202 733 1696 601 749 1471
1219 2428 1313 142 14 643 5 775 -13z m-4419 -575 c5 -5 60 -19 122 -30 63
-12 267 -60 455 -107 366 -92 389 -95 434 -50 29 30 61 42 74 29 12 -12 -26
-69 -126 -185 -78 -90 -80 -92 -85 -64 -5 28 -11 30 -153 73 -82 24 -150 43
-152 41 -14 -17 -165 -249 -165 -253 0 -3 23 -39 50 -80 28 -41 55 -86 60
-101 6 -14 19 -28 30 -31 11 -3 20 -9 20 -14 0 -17 41 -9 47 9 12 33 43 43 43
14 0 -10 -20 -38 -45 -62 -25 -24 -45 -48 -45 -53 0 -5 -18 -34 -41 -65 -60
-84 -93 -95 -49 -17 21 38 20 65 -7 118 -8 15 -120 190 -249 388 -130 197
-239 373 -244 390 -13 45 1 73 26 50z m8059 -119 c29 -55 75 -130 103 -165 27
-35 64 -97 82 -137 30 -68 32 -79 25 -144 -11 -111 -55 -175 -144 -205 -47
-16 -149 -14 -207 4 -27 8 -54 15 -60 15 -12 0 -76 -136 -141 -300 -33 -85
-37 -104 -38 -188 0 -78 3 -96 18 -106 9 -7 17 -19 17 -25 0 -9 12 -11 43 -6
58 9 119 27 135 38 8 6 12 6 12 -2 0 -6 -29 -40 -64 -75 -74 -75 -94 -119 -77
-175 22 -74 115 -151 182 -151 60 0 150 115 200 257 45 127 71 172 126 225 66
61 101 78 166 78 69 0 164 -45 205 -98 61 -77 107 -211 100 -291 -3 -30 -7
-36 -28 -39 -54 -5 -141 -25 -146 -33 -10 -17 -24 -9 -24 15 0 18 7 25 29 29
35 7 71 61 71 105 0 45 -36 136 -66 166 -34 33 -83 42 -122 22 -61 -31 -121
-131 -137 -228 -10 -63 -82 -194 -127 -232 -93 -80 -237 -104 -333 -56 -29 14
-63 43 -81 67 -66 88 -122 291 -94 343 8 14 8 25 2 29 -5 3 -17 22 -27 41 -9
19 -34 59 -54 89 -33 49 -36 59 -35 120 2 97 43 231 108 350 l56 104 -23 21
c-13 12 -32 36 -42 54 -11 18 -23 32 -27 32 -11 0 -209 -125 -246 -155 -29
-25 -32 -31 -26 -64 4 -20 13 -43 20 -52 8 -8 14 -21 14 -27 0 -19 -24 -14
-35 7 -25 49 -120 196 -156 240 -21 28 -39 57 -39 65 0 28 18 26 50 -4 18 -17
40 -30 49 -30 9 0 63 30 121 67 201 127 266 164 408 234 138 68 222 129 222
162 0 7 -9 30 -20 52 -11 22 -20 45 -20 53 0 33 26 -1 75 -96z m-8238 -908
c202 -36 394 -72 426 -80 32 -8 67 -12 78 -9 10 4 33 26 49 51 17 24 35 44 40
44 28 0 -9 -136 -66 -251 -25 -49 -25 -49 -43 -28 -14 18 -64 31 -305 79
l-288 58 235 -237 c206 -207 268 -276 255 -285 -24 -17 -119 -37 -228 -46 -74
-7 -157 -18 -185 -25 -27 -8 -96 -19 -153 -25 -56 -7 -104 -15 -107 -19 -2 -4
109 -63 246 -131 273 -135 267 -134 302 -67 10 20 23 37 28 37 22 0 18 -32 -9
-86 -16 -33 -37 -91 -47 -131 -21 -86 -45 -106 -45 -37 0 35 -5 50 -24 67 -13
12 -199 107 -413 210 -268 129 -394 195 -407 212 -10 14 -17 28 -15 30 2 2
194 30 427 61 232 32 422 61 422 64 0 3 -135 133 -300 290 -165 156 -300 289
-300 295 0 18 11 25 36 25 13 0 189 -30 391 -66z m9017 -972 c9 -32 16 -78 16
-103 1 -24 7 -73 15 -109 18 -82 19 -123 3 -118 -7 3 -15 18 -19 35 -10 52
-15 55 -92 48 -221 -20 -716 -91 -773 -111 -51 -18 -72 -76 -39 -104 12 -10
13 -16 3 -27 -18 -22 -37 41 -48 157 -4 52 -13 116 -20 141 -17 66 -8 96 13
47 9 -20 21 -40 27 -43 17 -10 290 24 445 56 179 37 258 49 320 49 38 0 61 7
93 27 46 30 49 38 26 71 -14 21 -12 42 5 42 5 0 16 -26 25 -58z m248 -59 c26
-23 22 -66 -8 -102 -46 -56 -115 -29 -118 45 -1 35 2 41 34 56 44 22 68 23 92
1z m-9055 -300 c-8 -125 -21 -198 -37 -218 -18 -22 -129 -107 -268 -206 l-107
-76 0 -69 0 -69 148 -3 c170 -3 188 3 226 80 l21 43 0 -175 -1 -175 -22 25
c-55 63 -34 60 -475 60 l-403 0 -24 -25 c-19 -18 -25 -35 -25 -70 0 -47 -9
-56 -30 -30 -14 17 -7 135 11 192 7 23 6 53 -5 111 -17 89 -11 150 25 267 18
58 25 69 64 94 126 80 233 63 364 -55 34 -31 67 -54 74 -51 18 7 223 173 310
251 72 65 127 140 127 172 0 8 7 14 16 14 14 0 15 -12 11 -87z m8834 -265 l70
-12 -6 -71 c-3 -38 -9 -227 -13 -420 l-7 -350 -95 0 c-82 0 -95 2 -98 18 -3
14 4 17 32 17 49 0 64 26 76 136 5 49 12 106 16 127 6 34 5 37 -17 37 -13 0
-143 7 -289 15 -315 17 -524 19 -551 5 -14 -8 -19 -21 -19 -55 0 -48 -8 -75
-21 -75 -15 0 -7 412 9 418 8 2 12 -7 12 -27 0 -25 7 -35 40 -56 38 -24 47
-25 184 -25 131 0 372 -10 584 -25 l82 -6 0 119 c0 166 -3 177 -56 203 -84 40
-62 49 67 27z m-8846 -725 c13 -34 68 -248 72 -285 6 -42 -10 -51 -32 -21 -12
16 -25 10 -143 -69 l-130 -87 47 -153 46 -153 80 -12 c44 -6 106 -12 137 -12
65 -1 78 11 78 75 0 31 2 35 15 24 8 -7 15 -25 15 -41 0 -16 6 -46 14 -66 7
-21 19 -69 25 -108 25 -142 28 -155 43 -172 21 -24 114 -184 122 -210 4 -12 2
-24 -4 -28 -5 -3 -10 -1 -10 4 0 6 -5 11 -10 11 -15 0 -473 -374 -462 -378 5
-1 138 9 296 23 264 23 406 31 406 21 0 -36 -95 -201 -269 -465 -44 -69 -79
-126 -77 -128 8 -8 451 179 459 193 4 8 17 14 27 14 17 0 20 7 20 50 0 36 -4
52 -15 56 -19 8 -20 34 0 34 8 0 22 -16 30 -36 8 -20 28 -52 45 -70 16 -19 30
-41 30 -48 0 -8 16 -37 35 -66 38 -57 40 -60 25 -60 -5 0 -10 7 -10 15 0 8 -7
15 -15 15 -8 0 -15 7 -15 15 0 21 -46 19 -84 -4 -17 -11 -204 -88 -416 -171
-212 -83 -389 -155 -395 -161 -15 -15 -45 -11 -45 6 0 25 20 59 232 399 110
175 197 320 195 323 -3 2 -186 -14 -406 -37 -221 -23 -405 -40 -410 -38 -27
10 39 72 333 312 179 147 334 279 346 293 17 22 20 35 14 72 -3 25 -12 53 -19
61 -7 8 -13 32 -13 54 -2 56 -9 73 -43 97 -27 19 -93 30 -487 80 -355 46 -465
63 -492 78 -63 35 -85 15 320 292 393 270 388 266 437 332 45 61 49 81 28 130
-5 12 -3 17 8 17 8 0 18 -8 22 -17z m7906 -304 c34 -22 131 -51 340 -103 488
-121 503 -123 537 -76 12 16 22 41 22 55 0 17 5 25 13 22 15 -5 14 -27 -8
-102 -9 -33 -23 -89 -31 -123 -8 -35 -30 -116 -49 -179 -19 -64 -35 -137 -35
-164 0 -51 -15 -64 -40 -34 -7 8 -24 15 -39 16 -33 0 -114 33 -119 48 -2 7 15
11 51 11 33 0 59 5 65 13 6 7 27 63 46 123 l34 109 -166 42 c-124 31 -169 39
-174 30 -20 -30 -40 -120 -45 -200 -5 -76 -8 -87 -22 -81 -16 6 -28 10 -125
37 -62 17 -72 37 -20 37 24 0 48 9 69 25 29 22 35 34 49 112 9 48 16 93 16 99
0 14 -91 37 -235 60 -152 23 -154 23 -179 -9 -17 -24 -21 -45 -24 -137 l-4
-108 41 -21 c50 -26 55 -51 9 -51 -46 0 -158 54 -158 76 0 10 9 45 19 78 11
34 33 117 51 186 17 69 38 137 46 152 8 14 14 42 14 61 0 20 5 48 12 64 l11
28 7 -43 c4 -24 13 -48 21 -53z m-100 -735 c44 -26 79 -52 79 -58 0 -9 -27
-11 -93 -8 -90 4 -94 3 -126 -23 -36 -31 -81 -122 -81 -165 0 -39 39 -91 90
-120 81 -45 198 -29 270 37 96 86 253 112 365 60 76 -36 93 -51 121 -112 32
-67 32 -144 0 -228 -29 -78 -58 -133 -90 -171 l-24 -29 -88 46 c-100 51 -119
73 -55 62 56 -9 132 17 182 64 33 32 39 44 39 80 0 93 -43 143 -128 149 -64 4
-172 -26 -207 -58 -29 -27 -150 -76 -218 -89 -59 -11 -137 -2 -178 20 -38 20
-100 82 -119 119 -31 60 -44 150 -31 210 18 84 78 187 130 226 25 18 54 34 65
34 10 0 54 -21 97 -46z m-438 -561 c-7 -3 -13 -12 -13 -21 0 -8 -7 -23 -16
-33 -14 -16 -6 -24 125 -122 77 -58 182 -129 233 -158 81 -46 198 -127 320
-220 44 -35 51 -35 90 -7 l30 21 -12 -24 c-7 -13 -32 -55 -57 -94 -25 -38 -59
-94 -76 -124 -18 -30 -38 -56 -44 -59 -18 -5 -16 33 2 48 16 13 20 47 7 66 -4
7 -92 69 -197 140 -104 70 -244 166 -310 212 -125 88 -172 115 -217 126 -23 5
-30 1 -55 -36 -27 -40 -53 -60 -53 -40 0 5 24 43 53 83 30 41 71 106 92 144
47 87 85 130 99 114 8 -8 7 -13 -1 -16z m797 -512 c0 -12 -20 -25 -27 -18 -7
7 6 27 18 27 5 0 9 -4 9 -9z m92 -222 c41 -29 39 -73 -4 -99 -18 -11 -45 -20
-60 -20 -63 0 -93 109 -38 137 29 15 63 9 102 -18z m-2976 -1018 c124 -57 130
-205 12 -327 l-40 -41 49 -8 c153 -22 253 -133 253 -280 0 -76 -26 -138 -81
-199 -83 -91 -234 -153 -388 -158 l-74 -3 -13 50 c-8 28 -14 70 -14 95 l0 45
19 -30 c52 -87 203 -106 303 -40 73 49 115 167 88 249 -31 94 -112 146 -240
155 -70 5 -85 9 -88 24 -2 12 3 17 17 17 30 0 86 54 112 106 18 37 21 57 16
109 -6 81 -30 124 -87 153 -106 55 -254 -24 -255 -135 0 -82 -39 -42 -52 54
-10 71 23 95 197 149 123 39 204 43 266 15z m-2276 -50 c0 -5 -18 -53 -39
-107 -49 -125 -69 -194 -125 -425 -25 -103 -54 -211 -66 -240 -11 -30 -20 -69
-20 -87 0 -34 9 -40 114 -81 20 -8 26 -15 19 -22 -7 -7 -44 -1 -118 20 -59 17
-117 31 -129 31 -12 0 -61 12 -111 26 -49 14 -96 28 -102 30 -15 4 -17 34 -3
34 6 0 27 -7 47 -15 50 -21 86 -19 110 8 11 12 46 105 77 207 76 242 72 229
96 350 11 58 26 115 32 128 20 38 0 44 -88 27 -96 -18 -114 -19 -114 -2 0 7
72 36 173 68 162 54 247 71 247 50z m646 -86 c139 -41 213 -145 184 -257 -15
-54 -89 -128 -154 -153 -25 -10 -46 -21 -46 -25 0 -4 12 -16 28 -26 103 -67
174 -174 175 -264 1 -104 -91 -224 -196 -255 -135 -40 -337 6 -424 97 -40 42
-53 76 -53 141 0 77 17 124 62 173 38 41 144 104 176 104 8 0 -9 25 -39 58
-118 129 -134 186 -76 282 66 112 225 166 363 125z m854 -10 c83 -30 120 -84
120 -177 -1 -73 -26 -123 -98 -189 l-61 -57 61 -22 c72 -26 134 -80 160 -137
25 -56 27 -173 4 -228 -23 -55 -89 -119 -150 -147 -45 -20 -67 -23 -186 -23
-113 0 -141 3 -170 19 -81 43 -117 100 -126 203 -9 96 17 154 104 233 36 33
69 60 73 60 23 0 5 17 -35 33 -55 23 -121 92 -135 142 -22 81 26 203 100 252
71 47 135 64 219 59 41 -2 95 -12 120 -21z m480 -660 c0 -8 -4 -15 -9 -15 -13
0 -22 16 -14 24 11 11 23 6 23 -9z"/>
<path d="M3490 9451 l0 -159 101 38 c56 22 104 41 106 44 5 5 -194 236 -203
236 -2 0 -4 -72 -4 -159z"/>
<path d="M2264 9084 c-51 -26 -87 -65 -66 -72 6 -2 66 -71 133 -153 145 -178
148 -179 236 -96 l55 52 -5 53 c-7 67 -27 97 -107 167 -93 81 -159 94 -246 49z"/>
<path d="M3570 7580 c-191 -34 -339 -178 -379 -368 -8 -36 -11 -305 -11 -858
l0 -806 148 140 c217 206 334 306 554 472 313 236 434 300 565 300 93 0 136
-14 172 -56 64 -72 66 -84 63 -345 -3 -202 -1 -241 13 -277 36 -89 112 -108
201 -50 58 38 282 255 362 350 99 120 371 350 452 382 122 49 282 -15 326
-130 15 -40 16 -70 11 -247 -8 -240 1 -317 44 -359 23 -24 36 -28 83 -28 l56
0 99 89 c54 49 151 147 217 217 253 272 360 364 502 432 62 29 80 34 126 30
77 -6 179 -68 206 -123 55 -114 -10 -426 -166 -794 -169 -396 -190 -526 -94
-576 52 -27 90 -19 160 32 62 44 208 168 298 251 l42 40 0 919 c0 570 -4 941
-10 974 -15 83 -72 189 -136 253 -64 64 -170 121 -253 136 -65 12 -3583 12
-3651 0z"/>
<path d="M3547 5646 c-53 -19 -95 -54 -239 -195 l-128 -124 0 -866 c0 -737 3
-876 15 -930 42 -175 172 -304 343 -340 38 -8 571 -11 1866 -11 1986 0 1850
-4 1970 57 63 32 153 122 189 190 55 104 57 122 57 916 0 400 -3 727 -6 727
-4 0 -67 -59 -141 -130 -278 -269 -454 -412 -728 -595 -178 -119 -317 -193
-378 -201 -98 -14 -239 88 -271 194 -13 45 -13 65 -1 169 8 65 15 169 15 231
l0 112 -33 36 c-43 47 -94 55 -164 25 -41 -19 -78 -53 -219 -208 -247 -272
-339 -362 -444 -432 -228 -153 -317 -165 -428 -60 -77 72 -84 105 -72 321 17
301 -7 385 -117 395 -81 8 -139 -42 -386 -329 -119 -139 -204 -219 -343 -325
-159 -120 -170 -126 -249 -131 -92 -6 -133 8 -189 63 -56 54 -86 142 -86 249
0 86 43 221 145 456 102 234 143 337 167 415 39 127 24 286 -31 314 -33 17
-77 20 -114 7z"/>
<path d="M1603 8073 c2 -5 39 -72 82 -151 42 -79 82 -141 89 -139 16 5 146
189 146 207 0 12 -37 25 -152 53 -162 40 -172 41 -165 30z"/>
<path d="M9322 7864 c-127 -84 -172 -119 -168 -130 3 -9 6 -27 6 -40 0 -33 63
-100 107 -115 93 -30 216 30 279 137 32 55 34 124 5 185 -20 43 -44 79 -52 79
-2 0 -82 -52 -177 -116z"/>
<path d="M682 5540 c-51 -12 -107 -55 -128 -97 -12 -25 -18 -60 -19 -103 l0
-65 202 -3 203 -2 15 36 c8 20 15 61 15 90 0 50 -3 57 -40 93 -56 54 -152 74
-248 51z"/>
<path d="M995 4314 c-77 -46 -141 -88 -143 -92 -3 -10 326 -38 335 -29 6 7
-36 188 -46 199 -3 3 -69 -31 -146 -78z"/>
<path d="M4936 1380 c-64 -20 -114 -101 -101 -167 5 -29 24 -54 81 -111 l75
-73 46 33 c66 47 86 78 91 141 5 68 -10 118 -50 157 -24 24 -38 30 -71 29 -23
0 -55 -5 -71 -9z"/>
<path d="M4850 894 c-112 -104 -132 -244 -49 -339 38 -43 85 -59 148 -50 95
13 144 65 156 165 7 60 -8 115 -43 153 -23 26 -143 117 -154 117 -5 0 -31 -21
-58 -46z"/>
<path d="M5719 1367 c-64 -34 -92 -80 -84 -137 10 -73 36 -111 104 -158 l63
-42 30 17 c17 10 42 36 57 57 23 35 26 49 25 114 -2 82 -15 110 -74 150 -42
28 -66 28 -121 -1z"/>
<path d="M5719 897 c-65 -62 -84 -107 -82 -193 1 -86 26 -142 80 -179 67 -45
185 -30 245 32 32 33 33 37 32 116 0 95 -13 126 -73 180 -37 33 -129 87 -149
87 -5 0 -28 -19 -53 -43z"/>
</g>
</svg>
