<?xml version="1.0" standalone="no"?>
<!DOCTYPE svg PUBLIC "-//W3C//DTD SVG 20010904//EN"
 "http://www.w3.org/TR/2001/REC-SVG-20010904/DTD/svg10.dtd">
<svg version="1.0" xmlns="http://www.w3.org/2000/svg"
 width="200.000000pt" height="200.000000pt" viewBox="0 0 200.000000 200.000000"
 preserveAspectRatio="xMidYMid meet">

<g transform="translate(0.000000,200.000000) scale(0.100000,-0.100000)"
fill="#000000" stroke="none">
<path d="M0 1000 l0 -1000 1000 0 1000 0 0 1000 0 1000 -1000 0 -1000 0 0
-1000z m1692 55 l-3 -205 -34 0 -35 0 0 205 0 205 38 0 37 0 -3 -205z m-781
169 c19 -23 -1 -49 -37 -49 -30 0 -42 20 -30 51 7 19 50 18 67 -2z m-395 -99
c19 -12 26 -12 60 6 70 37 150 10 187 -62 13 -27 17 -54 15 -124 l-3 -90 -35
0 -35 0 -3 95 c-3 105 -15 130 -62 130 -47 0 -59 -25 -62 -130 l-3 -95 -35 0
-35 0 -5 96 c-5 105 -16 129 -59 129 -50 0 -56 -12 -61 -122 l-5 -103 -32 -3
-33 -3 0 113 c0 127 8 145 70 173 39 17 102 13 136 -10z m394 -130 l0 -145
-35 0 -35 0 0 145 0 145 35 0 35 0 0 -145z m140 56 c0 -74 3 -92 21 -115 23
-30 45 -33 77 -10 20 14 22 23 22 115 l0 99 41 0 41 0 -4 -110 c-3 -108 -3
-110 -35 -141 -62 -62 -188 -47 -221 26 -7 14 -12 71 -12 125 l0 100 35 0 35
0 0 -89z m330 -10 c0 -92 2 -101 22 -115 32 -23 54 -20 77 10 18 23 21 41 21
115 l0 89 35 0 35 0 0 -101 c0 -77 -4 -108 -17 -129 -41 -70 -156 -82 -216
-21 -31 31 -32 33 -35 141 l-4 110 41 0 41 0 0 -99z"/>
</g>
</svg>
